<?xml version="1.0" encoding="UTF-8"?>
<svg id="Layer_1" xmlns="http://www.w3.org/2000/svg" viewBox="0 0 686.39 216.55">
  <defs>
    <style>
      .cls-1 {
        fill: #31513c;
      }

      .cls-2 {
        fill: #fff;
      }
    </style>
  </defs>
  <rect class="cls-2" x=".3" y="-1.25" width="686.91" height="219.1"/>
  <g>
    <path class="cls-1" d="M201.43,176.08c-.46.55-.71.97-1.08,1.26-.49.4-1.07.69-1.55,1-3.61.33-7.13-.11-10.66-.06-3.53.05-7.06,0-10.28,0-2.75-.49-4.32-1.9-5.07-4.28-.05-.3-.17-.62-.16-.93.1-3.38-.55-6.69-.83-10.04-.15-1.77-1.02-3.37-.97-5.18.04-1.6-.09-3.2-.16-4.8-.01-.32.02-.66-.07-.96-.72-2.33-.66-4.74-.77-7.14-.01-.32-.12-.63-.2-1.03-.94-2.05-2.51-3.58-4.57-4.61-1.29-.34-2.56-.3-3.88-.03-2.18.91-3.63,2.48-4.17,4.86-.14.62-.42,1.2-.65,1.82-.16,3.69-.74,7.31-1.62,10.9-.23.92-.31,1.9-.33,2.85-.06,2.08-.13,4.13-.72,6.18-.44,1.51-.42,3.17-.46,4.77-.06,1.95-.41,3.81-1.17,5.57-.64,1.09-1.66,1.53-2.83,1.55-1.12.02-2.24-.11-3.35-.22-1.6-.16-3.19-.3-4.8-.1-.79.1-1.6.04-2.4.05-3.53.05-7.05.12-10.58.14-.62,0-1.28-.13-1.86-.35-.42-.16-.76-.56-1.27-.95-.55-2.05-1.4-4.19-1.29-6.44.17-3.41-.53-6.7-1.21-9.97-.94-4.56-1.77-9.11-1.82-13.81-.4-1.2-.8-2.41-1.13-3.43-.95-1.63-2.19-2.58-3.76-3.13-3.25-1.16-5.56.18-7.15,2.36-.47.64-.84,1.39-1.06,2.14-.58,1.99-1.33,3.95-1.3,6.08.02,1.12-.14,2.22-.48,3.31-.28.91-.35,1.88-.47,2.83-.08.63.05,1.34-.18,1.91-.97,2.46-.76,5.04-1.01,7.58-.23,2.38-.67,4.75-1.1,7.72-.4,1.34-1.49,2.86-3.19,3.81-.4.1-.71.25-1.02.25-7.2.02-14.41.03-21.51.03-2.1-.85-2.86-2.6-3.54-4.72-.06-1.66-.11-3.59-.21-5.5-.12-2.07-.07-4.15-.69-6.19-.32-1.04-.2-2.22-.23-3.34-.06-2.08-.08-4.16-.13-6.25-.01-.64.06-1.32-.11-1.91-.78-2.66-.62-5.4-.76-8.11-.08-1.6-.18-3.18-.56-4.76-.57-2.35-.57-4.77-.46-7.18.08-1.77.08-3.51-.52-5.22-.21-.59-.23-1.26-.23-1.89-.02-2.24,0-4.48.02-6.72,0-.48,0-.98.12-1.43.69-2.5.63-5.08.89-7.63.21-2.07.59-4.12,1.27-6.09.62-1.82,1.33-3.6,1.56-5.53.07-.61.41-1.2.65-1.79,1.41-3.59,3.33-6.93,5.22-10.27.7-1.25,1.66-2.36,2.57-3.48,2.85-3.48,5.86-6.78,9.61-9.34,1.59-1.08,3.11-2.26,4.67-3.37,1.84-1.3,3.82-2.34,5.91-3.16,1.33-.53,2.63-1.13,3.91-1.81,2.11-1.13,4.38-1.94,6.68-2.63,1.07-.32,2.15-.62,3.22-.94,1.84-.56,3.7-.95,5.63-1.13,2.7-.26,5.39-.7,8.06-1.2,1.59-.3,3.18-.43,4.77-.47,2.4-.05,4.81-.03,7.22,0,.8,0,1.62-.02,2.4.15,3,.66,6.05.6,9.08.77,2.39.13,4.82-.08,7.14.75,3.19.32,6.39.45,9.61.16.98-.57,1.97-1.1,2.9-1.71.77-.51.99-1.84.46-2.6-.91-1.31-1.95-2.55-2.51-4.35-.22-1.82-.56-3.88.07-6.07,2.08-3.69,5.53-5.49,9.9-6.34,1.14.33,2.51.73,3.8,1.11,1.01.69,1.93,1.32,2.84,1.94,1.15,1.38,2.25,2.75,2.48,4.61.07.62.25,1.26.52,1.83.28.59.83.98,1.49,1.1.47.08.97.14,1.43.07,1.73-.27,3.51-.83,5.28-.73s3.34.8,5.12.7c.84-.05,1.53-.42,1.95-1.19.15-.28.31-.56.42-.86.11-.3.15-.62.25-.93.69-2.26,2.06-3.95,4.21-4.98.43-.21.85-.45,1.26-.67,1.92-.47,3.83-.38,5.93-.05,2.72,1.1,5.34,2.56,6.63,5.62.52,2.4.36,4.79.07,7.19-.12.97-.04,1.91.22,2.52.96,1.56,2.44,2.04,3.44,3.08.88.93,1.79,1.83,2.67,2.72.41.75.85,1.42,1.16,2.16,1.12,2.67,2.63,5.12,4.28,7.49.64.92,1.23,1.87,1.82,2.83,1.21,1.94,2.78,3.52,4.68,4.76,2.42,1.58,4.86,3.1,7.65,3.97.44.14.88.41,1.22.72.34.31.7.73.79,1.15.17.77.33,1.62.18,2.37-.49,2.51-1.17,4.98-2.52,7.19-.33.54-.84.98-1.17,1.53-1.73,2.87-4.26,4.72-7.33,5.93-1.49.59-2.93,1.28-4.29,1.87-3.45.5-6.77,1.02-9.97,2.05-3.86,1.24-7.3,3.23-9.9,6.46-.4.5-.83.98-1.31,1.4-2.2,1.93-3.73,4.37-5.31,6.79-2.13,3.28-3.27,6.94-4.24,10.65-.28,1.07-.3,2.22-.33,3.34-.05,2.4.09,4.82-.71,7.14-.19,3.68-1.37,7.25-1.24,10.96.02.48.03,1-.14,1.43-.88,2.15-.63,4.42-.8,6.65-.06.8.07,1.66-.19,2.38-.67,1.85-.69,3.77-.92,5.68-.15,1.27-.46,2.52-.56,3.79-.11,1.27-.05,2.56-.09,3.85-.02.64-.1,1.28-.18,2.21ZM220.49,78.07c.39-.65.64-1.05.87-1.47,1.34-2.44-.67-6.13-3.84-6.03-.63.02-1.27.05-1.88.2-1.32.32-2.28,1.11-2.56,2.49-.15.76-.18,1.56-.13,2.34.07,1.18.69,2.09,1.68,2.71.53.33,1.13.58,1.72.78.93.32,1.86.28,2.75-.19.41-.22.81-.48,1.4-.83Z"/>
    <path class="cls-1" d="M272.99,110.13c.74-2.27,1.43-4.55,1.84-6.93.35-2.03,1.02-4.03,1.97-5.9.94-1.86,1.86-3.72,2.82-5.57.74-1.42,1.48-2.83,2.5-4.09,1.72-2.11,3.38-4.26,5.07-6.4.2-.25.43-.47.67-.69,4.2-3.96,8.55-7.74,13.78-10.33,3.44-1.7,6.84-3.48,10.63-4.35,1.7-.39,3.33-1.12,5.07-1.73,2.63-.15,5.38-.02,8.01-.89,3.68-.15,7.36-.45,11.05-.24,1.91.11,3.86,0,5.68.8,3.57.1,6.9,1.28,10.25,2.3,5.56,1.69,10.72,4.19,15.32,7.78.5.39.95.88,1.49,1.22,4.86,3.03,8.45,7.3,11.65,11.94.27.39.49.83.77,1.22,2.01,2.71,3.79,5.51,4.92,8.75,1.1,3.17,2.44,6.26,2.83,9.64.04.32.09.64.2.94,1.41,3.66,1.46,7.52,1.62,11.35.12,2.88.15,5.78-.11,8.65-.3,3.33-.61,6.69-1.76,9.88-.27.75-.64,1.5-.73,2.28-.27,2.45-1.37,4.58-2.42,6.74-.49,1.01-1.11,1.96-1.52,3-1.4,3.47-3.86,6.25-5.86,9.34-2.38,2.38-4.7,4.82-7.15,7.12-3.05,2.86-6.42,5.3-10.33,6.9-.44.18-.87.41-1.28.66-3.86,2.39-8.17,3.64-12.51,4.74-2.16.55-4.4.82-6.62,1.12-2.06.27-4.14.31-6.2.75-1.23.26-2.56.26-3.81-.1-1.72-.51-3.49-.47-5.25-.47-1.93,0-3.82-.1-5.69-.7-1.2-.39-2.54-.34-3.77-.65-2.01-.51-4.02-1.01-5.92-1.91-1.01-.48-2.07-.86-3.15-1.16-2.18-.61-4.17-1.62-6.1-2.77-1.65-.99-3.29-1.98-4.99-2.88-1.58-.83-2.97-1.88-4.21-3.16-2.34-2.42-4.72-4.8-7.02-7.25-1.43-1.52-2.65-3.22-3.59-5.09-.93-1.86-1.89-3.7-3-5.47-1.18-1.9-2.02-3.98-2.54-6.18-.63-2.64-1.26-5.29-2.08-7.87-.54-1.71-.86-3.41-.86-5.18,0-1.28-.1-2.54-.34-3.82-.47-2.53-.21-5.11-.17-7.67.77-2.33.5-4.77.82-7.64ZM313.56,85.57c-1.4.98-2.68,1.94-4.03,2.81-3.4,2.19-6.46,4.72-8.56,8.26-2.54,2.76-4.15,6.06-5.45,9.52-.73,1.94-1.39,3.91-1.57,6.01-.07.79-.1,1.63-.37,2.36-.57,1.55-.59,3.14-.57,4.74.02,1.76.19,3.53.09,5.28-.12,1.97.52,3.79.79,5.68.04.32.08.64.08.96-.03,1.82.67,3.44,1.35,5.07.37.88.96,1.69,1.23,2.6,1.04,3.48,3.24,6.2,5.5,8.92,3.43,4.13,7.55,7.32,12.33,9.77,2.61,1.34,5.44,1.81,8.12,2.83,3.98.32,7.9,1.32,11.93.93,1.27-.12,2.56-.08,3.6-.11,1.91-.63,3.54-1.31,5.25-1.71,4.62-1.07,8.6-3.32,12.35-6.16,2.06-1.56,3.8-3.43,5.66-5.18,2.15-2.01,3.61-4.47,4.77-7.13.38-.88.66-1.81,1.11-2.65,2.03-3.76,2.62-7.9,2.88-12.03.27-4.3.34-8.64-.1-12.87-.61-2.25-1.34-4.36-1.95-6.51-.78-2.76-1.95-5.42-3.7-7.76-1.63-2.18-3.26-4.36-4.84-6.49-.94-.74-1.89-1.36-2.68-2.14-2.32-2.27-5.3-3.57-7.92-5.39-.52-.36-1.13-.67-1.74-.8-3.58-.75-6.94-2.47-10.73-2.3-1.09.05-2.2-.32-2.86-.43-3.77.57-7.15.42-10.44.78-3.09,1.01-6.12,2.01-9.52,3.12Z"/>
    <path class="cls-1" d="M594.26,131.2c1.33-.22,2-1.04,2.02-2.31.01-.79-.09-1.61-.28-2.37-.28-1.08-.63-2.15-1.06-3.18-1.96-4.64-5.44-7.41-10.39-8.29-1.89-.34-3.78-.73-5.68-.87-1.91-.14-3.84,0-5.77.02-.96,0-1.92,0-2.89,0-1.44,0-2.86.06-4.29.41-1.55.38-3.17.44-4.74.76-3.3.67-6.52,1.6-9.56,3.07-.9.44-1.81.61-2.76.37-.79-.37-1.29-.97-1.66-2.18.06-1.18.09-2.79.22-4.38.12-1.43.41-2.85.53-4.28.14-1.58-.2-3.21.45-4.67.65-.86,1.48-1.39,2.42-1.6,2.5-.54,5.01-1.05,7.45-1.81.3-.09.63-.17.94-.17,2.27.02,4.41-.73,6.63-1.02,1.9-.24,3.74-.85,5.7-.75,1.75.09,3.52-.11,5.29-.12,3.04-.01,6.1-.25,9.07.67,3.4.12,6.62,1.14,9.83,2.1,5.01,1.49,9.35,4.11,12.96,7.93,1.66,1.76,3.04,3.69,4.05,5.91,1.26,2.78,2.36,5.58,2.98,8.58.4,1.91.54,3.8.56,5.72.01,1.6,0,3.2.03,4.8,0,.64.11,1.28.08,1.92-.2,4.96-.06,9.93-.04,14.89.03,7.53-.22,15.07.14,22.6.06,1.27.23,2.56-.37,3.9-.32.19-.7.55-1.13.65-.77.18-1.6.34-2.37.25-3.2-.38-6.4-.26-9.61-.1-1.43.07-2.87-.14-4.3-.27-.64-.06-1.51-1.02-1.53-1.68-.05-1.12.01-2.24-.08-3.35-.04-.44-.35-.85-.5-1.21-.74-.26-1.38-.3-1.92.15-.98.82-1.93,1.68-2.87,2.54-.95.87-1.96,1.65-3.18,2.13-2.53.99-4.97,2.18-7.66,2.78-1.57.35-3.11.7-4.72.78-1.11.06-2.24.2-3.32.45-1.28.3-2.58.35-3.82.18-3.79-.53-7.62-.91-11.32-1.97-2.48-.71-4.69-2.03-6.93-3.26-3.61-1.97-6.36-4.79-8.52-8.26-1.03-1.66-1.74-3.41-2.3-5.25-.88-2.92-1.57-5.87-1.45-8.96.11-2.89.56-5.75,1.29-8.52,1.08-4.11,3.5-7.52,6.48-10.51,1.71-1.72,3.56-3.21,5.87-4.09,1.19-.46,2.29-1.16,3.49-1.6,1.49-.55,3-1.04,4.62-1.25,2.38-.31,4.72-.92,7.13-.92,2.88,0,5.77-.08,8.65.08,4.83.28,9.47,1.43,13.81,3.63,1.42.72,2.74,1.67,4.34,1.91ZM567,163.95c3.42.92,6.9,1.36,10.45,1.15,1.28-.08,2.52-.27,3.76-.64,1.85-.55,3.58-1.38,5.38-2.02,2.6-.93,4.76-2.59,6.99-4.11.63-.43,1.05-1.18,1.64-1.88.1-1.22.18-2.49.33-3.76.14-1.26.35-2.52.53-3.78-.17-.46-.3-.92-.5-1.35-.27-.57-.61-1.11-.8-1.47-1.75-1.59-3.62-2.47-5.63-3.08-1.83-.56-3.64-1.18-5.49-1.79-1.85-.33-3.78-.22-5.66-.81-1.02-.32-2.24-.21-3.32-.03-1.11.19-2.19.38-3.32.4-2.44.05-4.73.66-6.83,1.89-2.06,1.6-4,3.26-4.84,6.11-.28,2.47-.21,5.18.08,8.02.36.77.76,1.63,1.12,2.41,1.87,1.93,3.74,3.67,6.12,4.74Z"/>
    <path class="cls-1" d="M502.49,176.23c-.87.55-1.41.89-1.8,1.14-.49.09-.81.19-1.12.19-4,.06-8.01.12-12.01.16-1.12.01-2.24,0-3.36-.07-1.02-.07-1.8-.64-2.33-1.5-.34-.54-.65-1.11-.86-1.71-1.76-4.8-4.04-9.4-5.54-14.3-.28-.91-.66-1.8-1.06-2.67-3.42-7.4-6.4-14.98-9.37-22.57-1.81-4.61-3.81-9.15-5.79-13.69-.7-1.61-1.27-3.28-1.93-4.9-1.51-3.7-3.27-7.29-4.93-10.93-.4-.87-.91-1.7-1.25-2.59-.16-.42-.03-.94-.03-1.31.62-1.2,1.54-1.69,2.76-1.78,1.8-.13,3.49.41,5.39.83,2.5-.5,5.21-.7,7.93-.59.48.02.96,0,1.43.09,1.85.31,3.36,1.24,4.11,2.97.83,1.9,1.59,3.86,2.08,5.86.34,1.42.76,2.77,1.42,4.05.81,1.57,1.4,3.22,2.02,4.87,1.58,4.19,3.19,8.36,4.87,12.51.66,1.63,1.38,3.21,1.65,4.99.14.92.6,1.83,1.05,2.67,1.68,3.12,2.68,6.49,3.64,9.87.35,1.23.68,2.47,1.15,3.65.31.79,1.01,1.2,1.89,1.1.83-.32,1.37-.92,1.61-1.71.69-2.29,1.38-4.59,1.97-6.91.51-2.02,1.16-3.98,1.96-5.9.43-1.03.77-2.1,1.16-3.14.22-.6.43-1.21.71-1.78,1.71-3.61,3.06-7.37,4.4-11.13.64-1.81,1.45-3.55,2.07-5.36.57-1.67,1.19-3.3,1.99-4.88.94-1.86,1.67-3.8,2.18-5.83.27-1.08.63-2.15,1.05-3.18.23-.58.65-1.08.95-1.56,1.65-.98,3.4-1.27,5.16-1.34,2.07-.08,4.17-.11,6.21.38,1.46.35,2.84.31,4.25-.17.45-.15.94-.2,1.41-.25,1.28-.13,3.21.72,3.15,2.81-.01.48-.07.95-.13,1.68-1.36,2.46-2.9,5.08-4,7.92-1.1,2.83-2.44,5.56-3.53,8.39-2.06,5.37-4.4,10.63-6.59,15.96-.61,1.48-1.14,2.99-1.7,4.48-.22.6-.34,1.26-.66,1.8-2.42,4-3.3,8.66-5.46,12.77-.59,1.13-.95,2.38-1.54,3.5-.83,1.57-1.42,3.2-1.94,4.89-.37,1.22-.85,2.41-1.36,3.58-1.2,2.79-2.38,5.58-3.37,8.63Z"/>
    <path class="cls-1" d="M409.7,101.84c.56-.9,1.19-1.36,1.98-1.66.29-.07.6-.2.91-.21,1.76-.04,3.5-.03,5.26.3,1.72.32,3.5.29,5.26.31.78,0,1.58-.21,2.35-.37.62-.13,1.22-.4,1.85-.48,1.57-.2,2.84.32,3.6,1.79.14.28.21.6.34.97-.18.87-.45,1.8-.54,2.75-.11,1.11-.07,2.24-.08,3.36-.04,5.13-.11,10.25-.11,15.38,0,8.01.07,16.02.1,24.03,0,2.24.03,4.48,0,6.73-.1,6.09-.08,12.17.12,18.26.03.95-.06,1.91-.08,2.66-.42.98-.99,1.52-1.98,1.94-5.19.4-10.65-.44-16.04.49-.31-.09-.62-.17-.93-.26-1.9-.5-2.32-1.87-2.3-3.21.03-2.08.14-4.16.17-6.24.08-5.12-.04-10.24,0-15.37.05-5.28.14-10.57.14-15.85,0-6.25-.13-12.5-.13-18.75,0-4.96.19-9.93-.09-14.89-.04-.62.13-1.26.18-1.68Z"/>
    <path class="cls-1" d="M431.4,71.61c.26,1.18.56,2.58.85,3.9-.28,1.5-.55,2.9-.77,4.1-.71,2.07-1.89,3.54-3.28,4.89-1.18,1.14-2.62,1.79-4.25,2.41-2.08.36-4.31.19-6.22.19-2.59-.56-4.3-2.02-6.02-3.43-.72-.59-1.3-1.4-1.8-2.21-.5-.81-.8-1.73-1.26-2.76v-4.77c.78-3.43,2.87-6.17,5.71-8.39,6.21-3.09,13.82-.92,17.04,6.08Z"/>
  </g>
</svg>