<?xml version="1.0" encoding="UTF-8"?>
<svg id="Layer_1" xmlns="http://www.w3.org/2000/svg" viewBox="0 0 720.01 216.55">
  <defs>
    <style>
      .cls-1 {
        fill: #fff;
      }
    </style>
  </defs>
  <path class="cls-1" d="M182.64,193.11c-.57.69-.89,1.22-1.35,1.58-.62.5-1.34.87-1.94,1.25-4.52.42-8.93-.13-13.33-.08-4.41.06-8.83.01-12.86.01-3.43-.61-5.41-2.38-6.34-5.35-.07-.38-.21-.77-.2-1.16.13-4.23-.69-8.37-1.04-12.56-.18-2.21-1.27-4.22-1.21-6.48.06-2-.12-4.01-.2-6.01-.02-.4.02-.82-.09-1.2-.9-2.92-.83-5.93-.96-8.93-.02-.4-.15-.79-.25-1.29-1.18-2.56-3.14-4.48-5.72-5.77-1.61-.43-3.2-.38-4.86-.04-2.72,1.14-4.54,3.1-5.22,6.09-.18.77-.53,1.51-.81,2.27-.2,4.62-.93,9.15-2.03,13.63-.28,1.15-.38,2.37-.42,3.57-.07,2.6-.16,5.16-.9,7.73-.55,1.89-.52,3.97-.58,5.97-.07,2.43-.51,4.76-1.46,6.97-.8,1.37-2.08,1.92-3.54,1.94-1.4.02-2.8-.14-4.19-.28-2-.2-3.99-.37-6-.13-.99.12-2,.05-3,.06-4.41.07-8.82.15-13.24.18-.78,0-1.6-.17-2.33-.44-.53-.2-.95-.7-1.58-1.19-.69-2.57-1.75-5.24-1.61-8.05.21-4.27-.67-8.38-1.51-12.48-1.17-5.7-2.21-11.39-2.27-17.27-.49-1.5-1-3.01-1.42-4.29-1.18-2.04-2.74-3.22-4.7-3.92-4.07-1.45-6.96.22-8.95,2.95-.58.8-1.06,1.74-1.33,2.68-.72,2.49-1.67,4.94-1.62,7.61.02,1.41-.18,2.78-.6,4.15-.35,1.13-.44,2.35-.59,3.54-.11.79.06,1.67-.22,2.38-1.21,3.07-.95,6.31-1.26,9.49-.29,2.98-.84,5.94-1.38,9.66-.5,1.68-1.87,3.57-3.99,4.76-.5.13-.89.31-1.27.31-9.01.03-18.03.03-26.92.04-2.63-1.06-3.57-3.25-4.42-5.9-.08-2.08-.13-4.49-.27-6.88-.15-2.59-.09-5.19-.87-7.74-.4-1.3-.25-2.78-.29-4.18-.08-2.6-.11-5.21-.17-7.82-.02-.8.08-1.65-.14-2.4-.97-3.33-.78-6.75-.95-10.15-.1-2-.22-3.98-.71-5.96-.72-2.94-.71-5.97-.58-8.98.1-2.22.1-4.4-.65-6.54-.26-.74-.28-1.58-.29-2.37-.02-2.8,0-5.61.03-8.41,0-.6,0-1.22.15-1.79.86-3.13.79-6.36,1.11-9.54.26-2.59.74-5.15,1.59-7.62.78-2.27,1.66-4.5,1.95-6.92.09-.77.52-1.5.81-2.24,1.77-4.49,4.16-8.67,6.53-12.85.88-1.56,2.07-2.96,3.21-4.35,3.56-4.35,7.34-8.48,12.02-11.69,1.98-1.36,3.89-2.83,5.85-4.22,2.3-1.63,4.77-2.92,7.4-3.96,1.67-.66,3.29-1.42,4.89-2.27,2.64-1.41,5.48-2.43,8.36-3.29,1.34-.4,2.69-.77,4.03-1.18,2.3-.7,4.63-1.18,7.05-1.42,3.38-.32,6.75-.87,10.09-1.5,1.99-.37,3.97-.54,5.97-.58,3.01-.06,6.02-.03,9.03-.01,1,0,2.03-.03,3,.19,3.75.82,7.57.76,11.36.97,3,.17,6.03-.1,8.93.94,3.99.4,7.99.56,12.03.2,1.23-.72,2.46-1.37,3.62-2.14.96-.64,1.24-2.3.58-3.25-1.14-1.64-2.44-3.19-3.15-5.44-.28-2.28-.7-4.86.09-7.59,2.6-4.62,6.91-6.86,12.39-7.93,1.43.42,3.14.92,4.76,1.39,1.26.86,2.42,1.65,3.55,2.42,1.44,1.73,2.82,3.44,3.1,5.77.09.78.31,1.58.65,2.29.35.74,1.03,1.23,1.86,1.38.58.11,1.21.18,1.79.09,2.16-.33,4.4-1.04,6.6-.92s4.18,1,6.41.87c1.05-.06,1.91-.53,2.44-1.49.19-.35.39-.7.53-1.08.14-.37.19-.78.31-1.16.87-2.83,2.58-4.94,5.27-6.23.54-.26,1.06-.57,1.57-.84,2.41-.59,4.8-.47,7.42-.06,3.41,1.37,6.68,3.2,8.3,7.03.65,3,.45,6,.09,8.99-.15,1.22-.05,2.39.28,3.15,1.21,1.95,3.06,2.55,4.3,3.85,1.1,1.16,2.25,2.29,3.34,3.4.51.94,1.07,1.78,1.45,2.7,1.41,3.34,3.29,6.41,5.35,9.37.8,1.15,1.54,2.34,2.28,3.54,1.51,2.42,3.48,4.4,5.86,5.95,3.02,1.97,6.08,3.88,9.57,4.97.55.17,1.1.51,1.53.9.42.39.87.91.99,1.44.21.96.41,2.02.22,2.97-.62,3.14-1.46,6.23-3.16,9-.42.68-1.05,1.23-1.46,1.91-2.16,3.59-5.33,5.9-9.17,7.42-1.86.74-3.67,1.6-5.36,2.34-4.31.63-8.48,1.28-12.47,2.56-4.83,1.55-9.13,4.04-12.38,8.08-.5.62-1.04,1.23-1.64,1.76-2.75,2.42-4.67,5.46-6.64,8.5-2.66,4.1-4.09,8.68-5.31,13.33-.35,1.34-.38,2.78-.41,4.18-.06,3,.11,6.03-.88,8.94-.23,4.6-1.71,9.07-1.55,13.72.02.6.04,1.25-.18,1.79-1.11,2.69-.79,5.53-1.01,8.32-.08,1,.09,2.08-.24,2.98-.84,2.31-.86,4.72-1.15,7.11-.19,1.59-.57,3.15-.71,4.74-.14,1.59-.06,3.21-.11,4.81-.03.8-.13,1.6-.23,2.76ZM206.48,70.49c.48-.82.8-1.32,1.08-1.84,1.67-3.05-.84-7.67-4.81-7.54-.79.02-1.59.06-2.35.25-1.65.4-2.85,1.39-3.2,3.11-.19.95-.22,1.96-.17,2.93.08,1.48.87,2.62,2.11,3.39.66.41,1.41.72,2.15.98,1.16.41,2.33.35,3.43-.24.52-.28,1.01-.6,1.75-1.04Z"/>
  <path class="cls-1" d="M272.17,110.6c.92-2.84,1.78-5.69,2.3-8.67.44-2.54,1.28-5.04,2.46-7.38,1.18-2.32,2.33-4.65,3.53-6.96.92-1.78,1.85-3.54,3.13-5.11,2.15-2.64,4.23-5.34,6.34-8,.25-.31.54-.59.83-.87,5.26-4.96,10.69-9.68,17.25-12.92,4.31-2.13,8.55-4.35,13.3-5.45,2.13-.49,4.16-1.4,6.35-2.16,3.3-.19,6.73-.02,10.03-1.12,4.61-.18,9.21-.56,13.83-.31,2.39.13,4.83,0,7.1,1,4.46.13,8.63,1.6,12.83,2.88,6.95,2.11,13.42,5.24,19.16,9.74.63.49,1.19,1.1,1.86,1.52,6.08,3.79,10.57,9.13,14.58,14.94.34.49.61,1.04.97,1.52,2.52,3.39,4.74,6.9,6.15,10.94,1.38,3.97,3.05,7.83,3.54,12.06.05.4.11.8.25,1.17,1.76,4.58,1.82,9.41,2.02,14.2.15,3.6.18,7.24-.14,10.82-.38,4.17-.76,8.37-2.2,12.37-.34.94-.8,1.88-.91,2.86-.34,3.07-1.72,5.73-3.03,8.43-.61,1.26-1.38,2.45-1.9,3.75-1.75,4.34-4.84,7.82-7.33,11.68-2.97,2.97-5.88,6.03-8.94,8.9-3.82,3.58-8.03,6.64-12.93,8.63-.55.23-1.09.51-1.6.82-4.83,2.99-10.22,4.56-15.65,5.93-2.71.68-5.51,1.03-8.28,1.4-2.58.34-5.18.38-7.75.93-1.54.33-3.2.33-4.77-.13-2.15-.63-4.36-.58-6.57-.59-2.41,0-4.78-.12-7.12-.88-1.5-.49-3.18-.43-4.72-.82-2.51-.64-5.03-1.27-7.4-2.39-1.26-.6-2.59-1.07-3.94-1.45-2.73-.76-5.21-2.02-7.63-3.47-2.06-1.24-4.12-2.48-6.25-3.6-1.98-1.04-3.72-2.35-5.26-3.95-2.92-3.03-5.9-6-8.79-9.07-1.79-1.9-3.31-4.02-4.49-6.37-1.17-2.33-2.37-4.62-3.75-6.84-1.48-2.38-2.53-4.98-3.18-7.73-.79-3.3-1.58-6.61-2.6-9.85-.68-2.14-1.07-4.26-1.07-6.48,0-1.6-.13-3.18-.42-4.77-.58-3.17-.27-6.39-.21-9.6.97-2.91.63-5.96,1.02-9.55ZM322.92,79.86c-1.75,1.23-3.35,2.43-5.04,3.52-4.25,2.74-8.09,5.91-10.71,10.33-3.17,3.45-5.19,7.58-6.82,11.91-.92,2.43-1.74,4.89-1.97,7.51-.08.99-.12,2.04-.46,2.95-.71,1.94-.74,3.93-.72,5.93.03,2.2.24,4.42.11,6.61-.15,2.46.65,4.74.99,7.11.06.4.11.8.1,1.2-.04,2.27.84,4.31,1.69,6.34.46,1.11,1.2,2.12,1.54,3.25,1.3,4.35,4.05,7.75,6.88,11.16,4.3,5.16,9.45,9.15,15.43,12.23,3.26,1.68,6.81,2.27,10.16,3.54,4.98.4,9.88,1.65,14.93,1.16,1.59-.15,3.2-.1,4.5-.14,2.38-.79,4.43-1.64,6.57-2.14,5.78-1.34,10.76-4.16,15.45-7.71,2.58-1.95,4.75-4.29,7.08-6.48,2.69-2.52,4.52-5.59,5.97-8.92.48-1.1.83-2.26,1.39-3.31,2.54-4.7,3.28-9.88,3.6-15.05.33-5.38.42-10.81-.12-16.1-.76-2.81-1.68-5.45-2.44-8.14-.98-3.45-2.45-6.78-4.63-9.71-2.03-2.73-4.07-5.45-6.06-8.11-1.17-.92-2.36-1.7-3.36-2.67-2.91-2.84-6.63-4.46-9.91-6.74-.65-.45-1.41-.83-2.18-1-4.48-.94-8.68-3.1-13.43-2.87-1.37.06-2.76-.4-3.58-.53-4.72.71-8.94.53-13.06.97-3.86,1.27-7.66,2.51-11.91,3.91Z"/>
  <path class="cls-1" d="M674.12,136.96c1.66-.28,2.5-1.3,2.53-2.89.02-.99-.11-2.01-.36-2.97-.35-1.35-.79-2.69-1.33-3.98-2.45-5.8-6.81-9.27-13-10.38-2.36-.42-4.72-.91-7.11-1.09-2.39-.18-4.81,0-7.21.02-1.2,0-2.41,0-3.61,0-1.81,0-3.58.08-5.37.52-1.94.48-3.97.56-5.93.95-4.12.83-8.15,2-11.96,3.85-1.12.54-2.27.76-3.45.46-.99-.47-1.61-1.21-2.08-2.73.07-1.48.11-3.48.28-5.48.15-1.79.51-3.56.67-5.35.17-1.98-.25-4.01.57-5.84.82-1.08,1.85-1.74,3.03-2,3.13-.68,6.26-1.32,9.33-2.27.38-.12.79-.21,1.18-.21,2.84.02,5.52-.91,8.29-1.27,2.37-.31,4.67-1.06,7.13-.94,2.2.11,4.41-.14,6.61-.15,3.8-.02,7.63-.31,11.35.84,4.25.14,8.28,1.42,12.3,2.62,6.26,1.87,11.7,5.14,16.21,9.92,2.08,2.21,3.8,4.61,5.06,7.4,1.57,3.48,2.95,6.98,3.73,10.74.5,2.38.68,4.75.7,7.16.02,2,.01,4,.04,6.01.01.8.14,1.61.11,2.4-.25,6.21-.08,12.42-.05,18.63.03,9.42-.27,18.85.17,28.27.07,1.59.28,3.21-.46,4.87-.4.24-.87.69-1.42.82-.97.22-2,.43-2.96.31-4.01-.47-8-.32-12.02-.13-1.78.08-3.59-.17-5.38-.33-.8-.07-1.88-1.28-1.92-2.1-.06-1.4.01-2.8-.1-4.2-.04-.55-.44-1.07-.63-1.51-.92-.33-1.73-.38-2.4.18-1.23,1.03-2.42,2.1-3.6,3.18-1.19,1.09-2.46,2.07-3.97,2.67-3.16,1.24-6.22,2.72-9.58,3.47-1.96.44-3.89.87-5.9.98-1.39.07-2.8.24-4.16.56-1.6.37-3.22.44-4.78.22-4.75-.66-9.54-1.14-14.17-2.46-3.11-.89-5.86-2.54-8.67-4.08-4.52-2.47-7.96-5.99-10.66-10.34-1.29-2.07-2.18-4.26-2.88-6.57-1.1-3.66-1.97-7.35-1.82-11.21.14-3.61.7-7.19,1.61-10.65,1.35-5.14,4.38-9.4,8.11-13.15,2.14-2.15,4.46-4.02,7.34-5.12,1.49-.57,2.87-1.45,4.37-2,1.87-.69,3.75-1.3,5.78-1.57,2.97-.39,5.9-1.15,8.92-1.15,3.61,0,7.22-.11,10.82.1,6.05.35,11.84,1.79,17.28,4.55,1.77.9,3.43,2.09,5.42,2.39ZM640.01,177.93c4.28,1.15,8.63,1.71,13.07,1.44,1.6-.1,3.15-.34,4.71-.8,2.31-.69,4.47-1.72,6.73-2.53,3.25-1.17,5.95-3.24,8.75-5.14.79-.54,1.31-1.48,2.05-2.35.13-1.53.23-3.12.41-4.7.18-1.58.44-3.15.66-4.74-.21-.57-.37-1.15-.63-1.68-.34-.71-.76-1.39-1.01-1.84-2.19-1.99-4.52-3.09-7.04-3.86-2.29-.7-4.56-1.48-6.87-2.24-2.32-.42-4.73-.28-7.08-1.01-1.27-.4-2.8-.27-4.15-.04-1.38.23-2.75.48-4.15.51-3.05.06-5.92.83-8.54,2.36-2.58,2-5,4.08-6.06,7.65-.35,3.09-.27,6.48.09,10.03.44.96.95,2.04,1.4,3.01,2.34,2.42,4.67,4.59,7.66,5.93Z"/>
  <path class="cls-1" d="M559.3,193.29c-1.09.69-1.76,1.11-2.25,1.42-.62.11-1.01.24-1.4.24-5.01.08-10.02.15-15.03.2-1.4.01-2.81,0-4.2-.09-1.28-.09-2.25-.81-2.92-1.88-.42-.68-.81-1.39-1.08-2.14-2.2-6.01-5.05-11.76-6.93-17.89-.35-1.14-.83-2.25-1.33-3.34-4.28-9.26-8.01-18.74-11.72-28.24-2.26-5.77-4.76-11.45-7.24-17.13-.88-2.02-1.58-4.1-2.41-6.13-1.89-4.63-4.09-9.13-6.17-13.67-.5-1.09-1.14-2.13-1.56-3.24-.2-.52-.03-1.18-.03-1.64.78-1.5,1.93-2.11,3.45-2.22,2.25-.16,4.36.51,6.75,1.04,3.13-.63,6.52-.87,9.93-.74.6.02,1.21.01,1.79.11,2.32.39,4.2,1.56,5.14,3.72,1.04,2.38,1.99,4.83,2.6,7.34.43,1.77.96,3.47,1.78,5.07,1.02,1.96,1.75,4.03,2.53,6.09,1.97,5.24,3.99,10.46,6.1,15.65.83,2.04,1.72,4.02,2.07,6.24.18,1.15.75,2.29,1.32,3.34,2.11,3.91,3.36,8.12,4.56,12.35.44,1.54.85,3.09,1.44,4.57.39.99,1.27,1.5,2.36,1.38,1.03-.4,1.71-1.15,2.01-2.13.87-2.87,1.73-5.74,2.46-8.65.64-2.53,1.45-4.98,2.46-7.39.54-1.29.97-2.62,1.45-3.93.28-.75.54-1.51.89-2.23,2.14-4.52,3.83-9.21,5.51-13.92.8-2.26,1.82-4.44,2.6-6.71.72-2.09,1.49-4.13,2.49-6.1,1.18-2.32,2.09-4.75,2.73-7.29.34-1.35.79-2.69,1.31-3.98.29-.72.82-1.35,1.19-1.95,2.07-1.23,4.25-1.59,6.45-1.67,2.59-.1,5.22-.13,7.77.48,1.82.44,3.56.39,5.32-.21.56-.19,1.17-.25,1.77-.31,1.6-.16,4.02.91,3.94,3.52-.02.6-.09,1.19-.16,2.1-1.7,3.08-3.62,6.36-5,9.91-1.37,3.54-3.05,6.96-4.41,10.5-2.58,6.72-5.51,13.3-8.24,19.96-.76,1.85-1.43,3.74-2.13,5.61-.28.75-.42,1.58-.83,2.25-3.02,5.01-4.13,10.83-6.83,15.98-.74,1.41-1.19,2.98-1.93,4.38-1.03,1.96-1.78,4.01-2.42,6.12-.46,1.53-1.07,3.02-1.7,4.48-1.5,3.49-2.97,6.98-4.22,10.79Z"/>
  <path class="cls-1" d="M443.22,100.23c.7-1.12,1.49-1.7,2.48-2.07.37-.09.75-.25,1.14-.26,2.2-.05,4.37-.04,6.58.37,2.15.4,4.38.37,6.58.39.98.01,1.97-.27,2.95-.47.78-.16,1.53-.5,2.32-.61,1.97-.25,3.55.4,4.5,2.23.18.35.27.75.43,1.21-.22,1.09-.56,2.26-.67,3.44-.14,1.39-.09,2.8-.1,4.21-.05,6.42-.14,12.83-.13,19.25.01,10.02.09,20.04.13,30.06.01,2.8.04,5.61,0,8.41-.13,7.62-.09,15.23.15,22.85.04,1.19-.07,2.39-.11,3.33-.52,1.23-1.24,1.9-2.48,2.43-6.49.5-13.32-.55-20.07.61-.39-.11-.77-.22-1.16-.32-2.37-.63-2.9-2.33-2.87-4.01.04-2.6.17-5.21.21-7.81.1-6.41-.06-12.82,0-19.23.06-6.61.18-13.22.18-19.83,0-7.82-.17-15.64-.16-23.45,0-6.21.24-12.42-.12-18.63-.05-.78.17-1.57.23-2.11Z"/>
  <path class="cls-1" d="M470.35,62.41c.32,1.48.7,3.23,1.06,4.87-.35,1.88-.68,3.63-.96,5.12-.88,2.58-2.36,4.43-4.11,6.12-1.48,1.43-3.27,2.24-5.31,3.01-2.61.45-5.4.23-7.78.24-3.24-.7-5.38-2.53-7.53-4.29-.9-.74-1.63-1.76-2.25-2.76-.62-1.01-1-2.16-1.58-3.45v-5.97c.98-4.3,3.59-7.72,7.15-10.5,7.77-3.86,17.29-1.15,21.32,7.6Z"/>
</svg>