<?xml version="1.0" encoding="UTF-8"?>
<svg id="Layer_1" xmlns="http://www.w3.org/2000/svg" viewBox="0 0 504 542.1">
  <defs>
    <style>
      .cls-1 {
        fill: #31513c;
      }

      .cls-2 {
        fill: #fff;
      }
    </style>
  </defs>
  <rect class="cls-2" x="-.7" y="-1.26" width="507.14" height="547.95"/>
  <g>
    <path class="cls-1" d="M182.75,288.42c-1.64-5.29-4.42-8.41-8.27-10.59-2.85-.75-5.69-.63-8.53-.29-2,.25-3.64,1.16-4.81,2.75-1.27,1.72-2.38,3.55-3.45,5.17-1.32,3.04-1.83,6.03-2.29,9.11-.53,3.51-1.19,6.99-1.4,10.55-.13,2.1-.92,4.16-1.2,6.26-.28,2.11-.19,4.28-1.1,6.28-.27,4.98-1.86,9.76-2.07,14.77-.17,4.01-.93,8-1.49,12.48-1.28,3.07-3.77,5.42-7.63,6.54-3.61,0-7.4,0-11.2,0-1.9,0-3.81.11-5.65-.51-2.56-.87-5.1.54-7.74-.1-2.51-.6-5.18-.35-7.77.32-1.36.35-2.82.39-4.24.47-1.18.07-2.37.01-3.27.01-3.11-.83-5.7-1.92-7.32-5.17-.79-3.73-1.46-7.92-1.61-12.2-.13-3.79-.26-7.58-1.25-11.3-.48-1.8-.34-3.78-.39-5.68-.06-2.14.02-4.28-.03-6.42-.03-1.18.09-2.48-.34-3.52-1.14-2.74-1.03-5.58-1.07-8.43-.04-2.85-.02-5.71-.23-8.55-.21-2.83-.75-5.64-1-8.47-.25-2.84-.07-5.73-.54-8.53-.86-5.17-1.33-10.36-1.23-15.59.04-2.18-.71-4.22-.8-6.34-.26-6.17-.66-12.34-.29-18.52.13-2.13.26-4.28.2-6.41-.12-4.79.84-9.45,1.59-14.12.63-3.97,1.33-7.96,2.52-11.8,1.75-5.66,3.57-11.3,5.6-16.87,1.05-2.88,2.51-5.63,3.97-8.34,3.26-6.08,6.97-11.87,11.64-17,1.76-1.93,3.4-3.96,5.12-5.93,3-3.41,6.58-6.17,10.1-8.99,5.94-4.76,12.36-8.8,19.12-12.3.21-.11.45-.18.64-.31,6.54-4.55,14.07-6.77,21.53-9.11,5.64-1.77,11.39-3.21,17.11-4.75.91-.25,1.87-.31,2.81-.39,2.6-.21,5.2-.37,7.74-1.14,1.12-.34,2.35-.26,3.53-.41,3.05-.39,6.1-1.08,9.16-1.13,3.08-.05,6.16.04,9.25-.05,4.04-.12,8.08-.09,12.12.08,5.92.25,11.79,1.34,17.73,1.34,4.17,1.14,8.46,1.09,12.72,1.37.71.05,1.46,0,2.12.23,3.23,1.09,6.59.68,9.89.94,4.96.4,9.33-1.34,13.57-3.56,1.24-.65,2.31-1.69,2.42-3.19-.18-1.63-1.26-2.62-2.19-3.68-1.42-1.62-2.57-3.4-3.26-5.46-1.1-3.27-1.26-4.17-1.26-8.42.87-2.95,2.54-5.56,3.89-8.33.88-1.79,2.26-3.08,3.96-3.97,2.95-1.53,5.96-2.94,8.28-4.08,4.67-1.39,8.27.14,11.69,1.68,3.73,1.68,6.74,4.42,8.81,8.42.61,2.73,1.28,5.73,1.92,8.55,1.26,2.13,3.13,2.58,5.02,1.86,3.21-1.22,6.5-1.2,9.82-1.38,3.85-.21,7.58.21,11.13,1.43,1.35-.03,2.38-.54,3.22-1.46,1.59-2.2,1.62-4.91,2.26-7.26q3.03-3.81,9.35-7.83c1.52-.49,3.1-1,4.68-1.51h5.91c1.85.7,3.85,1.43,5.83,2.2,2.51.98,4.52,2.61,6.08,4.79,1.1,1.54,2.1,3.16,2.34,3.52,3.16,6.45,2.13,11.48.03,16.13.21,2.37,1.37,3.85,2.82,5.13,1.78,1.57,3.62,3.06,5.41,4.62,2.54,2.21,4.51,4.86,6.03,7.87,1.71,3.4,3.59,6.69,5.89,9.74.85,1.13,1.68,2.34,2.23,3.64,1.58,3.77,4.11,6.93,6.45,10.21,1.8,2.53,4.06,4.59,6.68,6.34,4.95,3.3,9.98,6.41,15.54,8.61,1.8.71,3.29,1.9,4.2,3.97.45,2.65.13,5.37-.86,8.16-1.59,4.48-3.22,8.92-5.41,13.03-4.11,4.94-9.27,8.28-14.84,11.04-2.13,1.05-4.33,1.95-6.5,2.91-3.72,1.65-7.68,2.56-11.64,3.14-4.52.66-8.71,2.23-12.96,3.7-2.46.86-4.82,1.98-6.91,2.85-3.72,3.13-7.22,5.98-10.6,8.96-1.23,1.09-2.29,2.41-3.28,3.73-2.29,3.03-4.3,6.26-6.83,9.12-1.41,1.59-2.37,3.52-3.29,5.47-2.13,4.52-3.81,9.2-5.28,13.95-.77,2.49-1.38,5.02-1.39,7.68-.02,5.71-1.43,11.3-1.66,17-1.23,3.91-1.02,7.98-1.4,11.99-.43,4.48-1.12,8.94-1.99,13.36-.18.93-.4,1.86-.44,2.8-.16,3.56-.27,7.1-1.24,10.59-.44,1.56-.21,3.31-.31,4.96-.2,3.07.03,6.2-1.17,9.14-.17.43-.24.94-.22,1.4.26,5.5-1.48,10.8-1.54,16.27,0,.46-.2.93-.38,1.7-.63.64-1.44,1.48-2.3,2.37-1.69.16-3.35.49-4.99.43-11.64-.4-23.28-.07-34.92-.11-2.13,0-4.26-.09-5.84-.12-2.66-.96-4.21-2.37-5.29-4.39-1.38-3.77-2.14-7.7-1.93-11.8.05-.94.06-1.98-.3-2.81-1.06-2.49-1.04-5.09-1.22-7.7-.11-1.65-.46-3.28-.7-4.92-.18-1.17-.44-2.34-.53-3.52-.2-2.61-.37-5.19-1.04-7.75-.42-1.58-.39-3.3-.43-4.96-.08-3.8-.19-7.58-1.1-11.32-.39-1.6-.37-3.3-.56-5.21-.79-1.73-1.59-3.72-2.58-5.6-2.1-3.98-5.57-5.62-9.96-5.64-2.45-.01-4.67.72-7.25,2.02-.99,1.02-2.31,2.37-3.29,3.37-.43.89-.73,1.29-.84,1.74-.94,3.92-1.86,7.84-2.75,11.77-.16.69-.2,1.41-.24,2.12-.31,6.65-1.33,13.21-2.64,19.73-.28,1.39-.25,2.84-.41,4.25-.14,1.17-.34,2.34-.53,3.51-.27,1.64-.68,3.26-.82,4.91-.22,2.6-.31,5.2-1.04,7.75-.32,1.12-.22,2.36-.28,3.54-.09,1.66-.17,3.32-.25,5.06-.43.79-.78,1.7-1.37,2.42-.58.71-1.32,1.43-2.14,1.8-2.19.99-4.54,1.6-6.93.93-2.34-.66-4.7-.58-7.07-.61-3.8-.05-7.6-.14-11.41-.16-1.42,0-2.91-.12-4.26.21-4.46,1.09-8.97.71-13.47.78-.47,0-.95,0-1.23,0-2.06-.48-3.89-.98-5.29-2.48-1.2-2.03-1.88-4.24-2.22-6.64-.74-5.16-1.08-10.38-2.42-15.45-.12-.45-.2-.94-.19-1.41.16-6.23-1.29-12.25-2.45-18.3-.62-3.26-.71-6.61-1.65-9.83-.33-1.11-.17-2.36-.21-3.55-.08-1.9-.14-3.8-.2-5.38ZM368.36,159.22h3.78c4.78-1.2,6.81-4.05,7.17-8.18-.77-3.16-2.01-5.89-5.25-7.34-2.2-.61-4.56-.87-6.77.26-2.17,1.1-3.65,2.93-4.49,5.07-1,4.12.59,7.03,3.82,9.22.39.26.82.46,1.74.97Z"/>
    <path class="cls-1" d="M178.11,418.1c-.54,2.58-.96,4.91-1.52,7.2-1.23,5.07-3.17,9.9-5.11,14.73-.99,2.46-2.35,4.66-4.22,6.52-2.36,2.34-4.78,4.62-7.18,6.9-3.31,3.14-7.01,5.6-11.42,6.98-1.57.49-3.03,1.35-4.58,1.94-3.55,1.37-7.17,2.42-11.04,2.38-2.13-.02-4.26-.14-6.36.52-.64.2-1.39.09-2.09.02-1.41-.14-2.81-.51-4.21-.52-7.04-.08-13.5-2.2-19.65-5.45-2.09-1.11-4.16-2.27-6.3-3.28-1.76-.83-3.21-2-4.48-3.44-1.41-1.6-2.71-3.3-4.18-4.85-4.33-4.56-6.98-10.09-9.22-15.85-.34-.87-.49-1.82-.66-2.75-.13-.7-.02-1.46-.24-2.12-1.57-4.6-1.28-9.35-1.3-14.08-.01-2.14.16-4.24.86-6.31.45-1.32.55-2.79.68-4.2.35-3.59,1.43-6.94,3.18-10.09.35-.62.71-1.24.98-1.89,3.5-8.45,9.81-14.49,17.28-19.31,4.78-3.09,10.12-5.16,15.75-6.26,5.86-1.14,11.09-1.52,16.97-1.14,2.35.15,4.72.52,7.01,1.07,12.46,3.02,19.39,6.16,29.02,16.64.95,1.04,1.74,2.25,2.52,3.43,1.18,1.77,2.15,3.71,3.47,5.37,3.1,3.89,3.94,8.54,4.66,13.23.22,1.4.29,2.84.27,4.26-.06,3.57.24,7.1,1.1,10.33ZM120.19,380.47c-2.99.99-5.94,1.88-8.83,2.93-2.46.9-4.68,2.21-6.56,4.13-6.8,6.94-7.98,7.47-11.72,18.29-.08.22-.09.46-.32,1.66,0,2.83-.03,6.62.01,10.42.02,1.66,1.82,9.51,2.39,11.06,2.04,5.55,5.96,9.63,10.42,13.25,1.65,1.34,3.54,2.39,4.28,2.88,7.53,3.38,14.25,4.41,21.23,3.74.47-.05.94-.12,1.41-.19,6.62-2.1,12.84-4.92,18.48-10.55,2.59-3.46,5.55-7.73,7.43-12.49.84-5.85.46-11.55.46-17.24,0-1.17-.22-2.38-.53-3.51-1.3-4.6-3.27-8.91-6.24-12.68-1.31-1.66-2.84-3.25-4.57-4.44-4.69-3.22-9.52-6.26-15.77-7.26h-11.58Z"/>
    <path class="cls-1" d="M352.56,423.13c2.43-1.41,2.94-3.03,2.17-5.11-.25-.67-.43-1.36-.69-2.02-1.05-2.77-2.76-4.95-5.59-6.1-.44-.18-.86-.4-1.2-.57-2.41-.45-4.73-.91-7.07-1.31-2.82-.48-5.65-.48-8.48.02-2.33.41-4.66.77-8.48,1.4-.8.29-3.02,1.09-5.24,1.92-1.38.51-2.76.63-4.16.21-1.34-.83-1.84-2.22-2.04-3.6-.23-1.63-.27-3.33-.06-4.96.39-3.06,2.09-5.26,5.06-6.3,2.69-.94,5.44-1.65,8.31-1.82,7.34-.44,14.69-.56,22.03-.17,1.43.08,2.81.28,4.18.76,2.46.86,4.95,1.59,7.45,2.38,1.75,1.22,3.57,2.35,5.24,3.68,2.85,2.26,4.9,5.11,5.85,8.69.73,2.74,1.62,5.44,2.31,8.19.28,1.13.28,2.35.28,3.53,0,7.83-.08,15.66-.07,23.49,0,3.79.16,7.59.22,11.38.03,1.65,0,3.3,0,4.73q-1.58,1.79-4.4,2.78c-1.72-.31-3.57-.7-5.43-.95-1.63-.22-3.28-.27-4.34-.35-2.54-1.05-3.2-3.67-5.89-3.97-1.41.86-2.97,1.91-4.62,2.81-1.66.91-3.4,1.66-4.79,2.34-3.15.5-5.95,1.22-8.76,1.3-2.57.08-5.16-.55-7.75-.83-1.18-.13-2.36-.19-3.34-.26-4.68-1.17-8.38-3.75-11.95-6.49-1.1-.85-2.07-1.97-2.85-3.13-2.56-3.85-3.32-8.3-3.98-12.76.21-6.87,1.94-13.08,7.47-17.74,1.85-1.56,3.93-2.71,6.15-3.48,3.13-1.08,6.34-1.9,9.55-2.72,1.13-.29,2.35-.37,3.52-.35,6.21.11,12.27.98,17.87,3.94,1.03.55,2.17.9,3.53,1.46ZM331.21,451.8c3.77.2,7.3.29,10.85-.22,1.09-.41,2.2-.8,3.29-1.25,1.97-.81,3.82-1.83,5.54-3.09,2.49-1.82,3.58-4.25,3.48-7.31-.08-2.54-.98-4.57-3.2-5.91-.4-.24-.83-.45-.91-.49-7.02-1.84-13.74-2.91-20.42-1.55-3.56,1.04-6.14,2.88-7.15,6.93-.44,2.96.28,6.1,2.1,8.88,1.66,1.94,3.76,2.97,6.43,4.02Z"/>
    <path class="cls-1" d="M299.28,396.51c.9,1.89.74,3.3.21,4.65-.43,1.1-1.02,2.14-1.6,3.17-1.16,2.07-2.38,4.11-2.82,6.49-.04.23-.19.44-.29.65-1.58,3.19-3.48,6.26-4.64,9.59-1.1,3.14-2.22,6.24-3.68,9.23-.63,1.28-1.48,2.48-1.88,3.83-1.64,5.47-3.9,10.66-6.32,15.81-1.31,2.78-2.13,5.77-2.86,8.77-.4,1.65-1.2,3.09-2.87,4.28-4.69.66-9.64.15-14.22.12-2.15-1.09-3.38-2.51-4.1-4.33-1.4-3.52-2.73-7.07-4.07-10.62-.25-.66-.25-1.44-.58-2.05-2.88-5.2-4.23-11.07-7.11-16.27-.57-1.03-1.02-2.14-1.35-3.27-1.4-4.8-3.53-9.3-5.69-13.78-1.55-3.2-3.19-6.36-4.78-9.54-.32-.63-.61-1.29-.81-1.97-.42-1.39-.55-2.79.27-4.35.18-.16.48-.56.87-.78.83-.45,1.71-.81,2.46-1.15,4.22-.33,8.13.95,11.8,1.08,1.75.71,2.65,1.76,3.19,3.14.26.66.68,1.28.83,1.97.7,3.27,2.04,6.3,3.23,9.4,2.04,5.3,4.03,10.63,6.08,15.92.52,1.33.98,2.64,1.27,4.06.42,2.09.99,4.15,1.68,6.17.38,1.09,1.09,2.08,1.73,3.07.59.92,2.62.89,3.13-.03.57-1.03,1.3-2.04,1.57-3.15.99-4.15,2.95-8,3.6-12.26.25-1.61.84-3.24,1.58-4.7,2.37-4.68,3.65-9.76,5.69-14.56.55-1.3.79-2.73,1.32-4.04.44-1.09,1.01-2.15,1.66-3.13.67-1.03,1.71-1.62,2.94-1.82.47-.07.94-.16,1.41-.15,2.86.06,5.68-.08,8.45-.94,1.39-.43,2.25-.06,4.71,1.5Z"/>
    <path class="cls-1" d="M208.45,464.21h-9.74c-.66-.17-.88-.23-1.12-.28-4.34-.97-5-2.97-4.73-6.57.2-2.6.36-5.19.11-7.8-.14-1.41-.06-2.84.04-4.26.13-1.89.49-3.76.52-5.65.03-1.88-.25-3.77-.36-5.65-.23-4.02-.06-8.04-.05-12.06.02-6.39-.3-12.78-.43-19.17-.03-1.41.07-2.83.2-4.23.09-.91,1.51-2.27,2.39-2.41.7-.11,1.41-.25,2.11-.26,3.31-.05,6.62-.11,9.93-.08.93,0,1.85.29,2.61.42.49.46.93.73,1.14,1.12.44.83.76,1.73,1.23,2.84-.92,3.03-.87,6.34-.85,9.66.03,4.5-.01,9-.03,13.49-.04,7.58-.09,15.15-.14,22.73-.02,3.32-.1,6.63,1.08,9.83.24.64.15,1.41.23,2.11.34,2.98-.81,5.06-4.14,6.23Z"/>
    <path class="cls-1" d="M198.19,384.51c-.9-.49-1.93-1.06-3.19-1.75-.54-.81-1.2-1.79-1.9-2.83-.37-2.05-.76-4.14-1.12-6.15.32-1.25.61-2.4.89-3.51,1.39-2.73,3.64-4.34,6.77-5.4h4.49c3.46,1,6.08,2.92,8.1,6.09.9,2.51.77,5.32.25,7.92-1.29,3.03-3.55,4.63-6.53,5.69-2.4.43-4.99.43-7.76-.07Z"/>
  </g>
</svg>