<svg xmlns="http://www.w3.org/2000/svg" viewBox="0 0 256 216.55">
  <path fill="#fff" d="M182.64,193.11c-.57.69-.89,1.22-1.35,1.58-.62.5-1.34.87-1.94,1.25-4.52.42-8.93-.13-13.33-.08-4.41.06-8.83.01-12.86.01-3.43-.61-5.41-2.38-6.34-5.35-.07-.38-.21-.77-.2-1.16.13-4.23-.69-8.37-1.04-12.56-.18-2.21-1.27-4.22-1.21-6.48.06-2-.12-4.01-.2-6.01-.02-.4.02-.82-.09-1.2-.9-2.92-.83-5.93-.96-8.93-.02-.4-.15-.79-.25-1.29-1.18-2.56-3.14-4.48-5.72-5.77-1.61-.43-3.2-.38-4.86-.04-2.72,1.14-4.54,3.1-5.22,6.09-.18.77-.53,1.51-.81,2.27-.2,4.62-.93,9.15-2.03,13.63-.28,1.15-.38,2.37-.42,3.57-.07,2.6-.16,5.16-.9,7.73-.55,1.89-.52,3.97-.58,5.97-.07,2.43-.51,4.76-1.46,6.97-.8,1.37-2.08,1.92-3.54,1.94-1.4.02-2.8-.14-4.19-.28-2-.2-3.99-.37-6-.13-.99.12-2,.05-3,.06-4.41.07-8.82.15-13.24.18-.78,0-1.6-.17-2.33-.44-.53-.2-.95-.7-1.58-1.19-.69-2.57-1.75-5.24-1.61-8.05.21-4.27-.67-8.38-1.51-12.48-1.17-5.7-2.21-11.39-2.27-17.27-.49-1.5-1-3.01-1.42-4.29-1.18-2.04-2.74-3.22-4.7-3.92-4.07-1.45-6.96.22-8.95,2.95-.58.8-1.06,1.74-1.33,2.68-.72,2.49-1.67,4.94-1.62,7.61.02,1.41-.18,2.78-.6,4.15-.35,1.13-.44,2.35-.59,3.54-.11.79.06,1.67-.22,2.38-1.21,3.07-.95,6.31-1.26,9.49-.29,2.98-.84,5.94-1.38,9.66-.5,1.68-1.87,3.57-3.99,4.76-.5.13-.89.31-1.27.31-9.01.03-18.03.03-26.92.04-2.63-1.06-3.57-3.25-4.42-5.9-.08-2.08-.13-4.49-.27-6.88-.15-2.59-.09-5.19-.87-7.74-.4-1.3-.25-2.78-.29-4.18-.08-2.6-.11-5.21-.17-7.82-.02-.8.08-1.65-.14-2.4-.97-3.33-.78-6.75-.95-10.15-.1-2-.22-3.98-.71-5.96-.72-2.94-.71-5.97-.58-8.98.1-2.22.1-4.4-.65-6.54-.26-.74-.28-1.58-.29-2.37-.02-2.8,0-5.61.03-8.41,0-.6,0-1.22.15-1.79.86-3.13.79-6.36,1.11-9.54.26-2.59.74-5.15,1.59-7.62.78-2.27,1.66-4.5,1.95-6.92.09-.77.52-1.5.81-2.24,1.77-4.49,4.16-8.67,6.53-12.85.88-1.56,2.07-2.96,3.21-4.35,3.56-4.35,7.34-8.48,12.02-11.69,1.98-1.36,3.89-2.83,5.85-4.22,2.3-1.63,4.77-2.92,7.4-3.96,1.67-.66,3.29-1.42,4.89-2.27,2.64-1.41,5.48-2.43,8.36-3.29,1.34-.4,2.69-.77,4.03-1.18,2.3-.7,4.63-1.18,7.05-1.42,3.38-.32,6.75-.87,10.09-1.5,1.99-.37,3.97-.54,5.97-.58,3.01-.06,6.02-.03,9.03-.01,1,0,2.03-.03,3,.19,3.75.82,7.57.76,11.36.97,3,.17,6.03-.1,8.93.94,3.99.4,7.99.56,12.03.2,1.23-.72,2.46-1.37,3.62-2.14.96-.64,1.24-2.3.58-3.25-1.14-1.64-2.44-3.19-3.15-5.44-.28-2.28-.7-4.86.09-7.59,2.6-4.62,6.91-6.86,12.39-7.93,1.43.42,3.14.92,4.76,1.39,1.26.86,2.42,1.65,3.55,2.42,1.44,1.73,2.82,3.44,3.1,5.77.09.78.31,1.58.65,2.29.35.74,1.03,1.23,1.86,1.38.58.11,1.21.18,1.79.09,2.16-.33,4.4-1.04,6.6-.92s4.18,1,6.41.87c1.05-.06,1.91-.53,2.44-1.49.19-.35.39-.7.53-1.08.14-.37.19-.78.31-1.16.87-2.83,2.58-4.94,5.27-6.23.54-.26,1.06-.57,1.57-.84,2.41-.59,4.8-.47,7.42-.06,3.41,1.37,6.68,3.2,8.3,7.03.65,3,.45,6,.09,8.99-.15,1.22-.05,2.39.28,3.15,1.21,1.95,3.06,2.55,4.3,3.85,1.1,1.16,2.25,2.29,3.34,3.4.51.94,1.07,1.78,1.45,2.7,1.41,3.34,3.29,6.41,5.35,9.37.8,1.15,1.54,2.34,2.28,3.54,1.51,2.42,3.48,4.4,5.86,5.95,3.02,1.97,6.08,3.88,9.57,4.97.55.17,1.1.51,1.53.9.42.39.87.91.99,1.44.21.96.41,2.02.22,2.97-.62,3.14-1.46,6.23-3.16,9-.42.68-1.05,1.23-1.46,1.91-2.16,3.59-5.33,5.9-9.17,7.42-1.86.74-3.67,1.6-5.36,2.34-4.31.63-8.48,1.28-12.47,2.56-4.83,1.55-9.13,4.04-12.38,8.08-.5.62-1.04,1.23-1.64,1.76-2.75,2.42-4.67,5.46-6.64,8.5-2.66,4.1-4.09,8.68-5.31,13.33-.35,1.34-.38,2.78-.41,4.18-.06,3,.11,6.03-.88,8.94-.23,4.6-1.71,9.07-1.55,13.72.02.6.04,1.25-.18,1.79-1.11,2.69-.79,5.53-1.01,8.32-.08,1,.09,2.08-.24,2.98-.84,2.31-.86,4.72-1.15,7.11-.19,1.59-.57,3.15-.71,4.74-.14,1.59-.06,3.21-.11,4.81-.03.8-.13,1.6-.23,2.76ZM206.48,70.49c.48-.82.8-1.32,1.08-1.84,1.67-3.05-.84-7.67-4.81-7.54-.79.02-1.59.06-2.35.25-1.65.4-2.85,1.39-3.2,3.11-.19.95-.22,1.96-.17,2.93.08,1.48.87,2.62,2.11,3.39.66.41,1.41.72,2.15.98,1.16.41,2.33.35,3.43-.24.52-.28,1.01-.6,1.75-1.04Z" />
</svg>
