<?xml version="1.0" encoding="UTF-8"?>
<svg id="oiva-bear" xmlns="http://www.w3.org/2000/svg" viewBox="0 0 504 390" role="img" aria-labelledby="oiva-bear-title">
  <title id="oiva-bear-title">Oiva bear logo</title>
  <path fill="#31513c" d="M155.13,293.72c-2.14-6.91-5.76-10.98-10.79-13.82-3.72-.98-7.42-.83-11.13-.37-2.61.32-4.75,1.51-6.27,3.59-1.65,2.24-3.1,4.63-4.5,6.74-1.72,3.97-2.39,7.87-2.99,11.89-.69,4.58-1.55,9.12-1.83,13.77-.17,2.74-1.2,5.43-1.57,8.17-.37,2.76-.25,5.58-1.43,8.19-.36,6.5-2.42,12.74-2.7,19.28-.22,5.24-1.21,10.44-1.94,16.28-1.67,4.01-4.92,7.07-9.96,8.53-4.7,0-9.66,0-14.61,0-2.48,0-4.97.14-7.37-.67-3.34-1.13-6.65.7-10.1-.13-3.28-.79-6.76-.46-10.13.42-1.78.46-3.68.5-5.53.62-1.54.1-3.09.02-4.26.02-4.06-1.09-7.44-2.51-9.55-6.74-1.03-4.86-1.91-10.33-2.1-15.92-.17-4.95-.34-9.88-1.63-14.75-.62-2.35-.44-4.93-.5-7.4-.08-2.79.02-5.58-.04-8.37-.04-1.54.12-3.23-.45-4.59-1.49-3.58-1.35-7.28-1.4-10.99-.06-3.72-.03-7.45-.3-11.16-.27-3.7-.97-7.36-1.3-11.05-.33-3.7-.1-7.48-.7-11.13-1.12-6.75-1.73-13.52-1.61-20.34.05-2.84-.92-5.5-1.04-8.27-.34-8.05-.86-16.1-.38-24.16.16-2.78.34-5.58.27-8.36-.16-6.24,1.1-12.33,2.07-18.42.83-5.18,1.74-10.38,3.29-15.4,2.28-7.38,4.66-14.75,7.3-22.01,1.37-3.76,3.28-7.34,5.18-10.89,4.25-7.94,9.09-15.49,15.18-22.18,2.29-2.52,4.43-5.17,6.68-7.73,3.91-4.45,8.58-8.05,13.18-11.73,7.75-6.21,16.12-11.48,24.94-16.05.28-.14.58-.24.83-.41,8.53-5.93,18.36-8.83,28.09-11.88,7.36-2.32,14.86-4.19,22.32-6.2,1.18-.32,2.44-.41,3.67-.51,3.4-.27,6.79-.48,10.09-1.49,1.46-.44,3.07-.34,4.61-.53,3.98-.51,7.96-1.41,11.95-1.48,4.02-.07,8.04.05,12.07-.07,5.27-.15,10.55-.11,15.81.11,7.73.32,15.38,1.74,23.14,1.75,5.44,1.48,11.04,1.43,16.6,1.78.93.06,1.91,0,2.77.3,4.22,1.42,8.6.88,12.91,1.23,6.47.52,12.18-1.75,17.7-4.65,1.62-.85,3.01-2.2,3.16-4.17-.24-2.13-1.64-3.42-2.85-4.8-1.86-2.12-3.35-4.44-4.26-7.13-1.44-4.27-1.64-5.44-1.64-10.98,1.13-3.84,3.31-7.26,5.08-10.87,1.14-2.34,2.94-4.02,5.17-5.18,3.84-2,7.77-3.84,10.81-5.32,6.09-1.81,10.79.19,15.25,2.19,4.87,2.19,8.79,5.77,11.5,10.98.8,3.56,1.68,7.47,2.5,11.15,1.64,2.78,4.08,3.36,6.56,2.42,4.18-1.59,8.48-1.56,12.82-1.8,5.02-.27,9.89.27,14.52,1.87,1.77-.04,3.11-.71,4.2-1.9,2.08-2.88,2.11-6.41,2.95-9.47q3.96-4.97,12.2-10.21c1.99-.64,4.05-1.3,6.1-1.96h7.71c2.41.91,5.02,1.86,7.61,2.87,3.27,1.27,5.9,3.41,7.93,6.25,1.44,2.01,2.75,4.12,3.06,4.59,4.12,8.41,2.78,14.97.03,21.04.28,3.09,1.79,5.02,3.68,6.69,2.32,2.05,4.73,4,7.06,6.03,3.31,2.89,5.89,6.34,7.86,10.27,2.23,4.43,4.69,8.73,7.68,12.71,1.11,1.48,2.19,3.05,2.9,4.75,2.07,4.92,5.36,9.04,8.41,13.32,2.35,3.31,5.29,5.99,8.71,8.27,6.46,4.31,13.02,8.36,20.27,11.24,2.35.93,4.29,2.47,5.48,5.18.59,3.45.18,7.01-1.12,10.64-2.08,5.84-4.2,11.64-7.05,17-5.37,6.45-12.09,10.81-19.37,14.4-2.77,1.37-5.65,2.54-8.48,3.8-4.85,2.15-10.02,3.35-15.19,4.1-5.9.86-11.37,2.91-16.9,4.83-3.21,1.12-6.29,2.58-9.01,3.72-4.86,4.08-9.42,7.8-13.83,11.68-1.61,1.42-2.98,3.14-4.28,4.86-2.99,3.95-5.61,8.16-8.91,11.9-1.83,2.08-3.09,4.59-4.29,7.14-2.78,5.9-4.97,12-6.89,18.21-1.01,3.25-1.8,6.55-1.82,10.02-.03,7.46-1.86,14.74-2.17,22.18-1.61,5.1-1.33,10.41-1.82,15.64-.56,5.85-1.47,11.66-2.59,17.44-.24,1.21-.52,2.43-.58,3.65-.2,4.65-.36,9.26-1.62,13.81-.57,2.04-.27,4.31-.41,6.48-.26,4.01.04,8.08-1.53,11.93-.23.56-.32,1.22-.29,1.83.34,7.17-1.93,14.1-2,21.23,0,.6-.26,1.21-.49,2.21-.82.84-1.88,1.93-3.01,3.09-2.21.21-4.37.64-6.51.57-15.19-.52-30.38-.09-45.56-.15-2.78,0-5.56-.11-7.61-.16-3.48-1.25-5.49-3.09-6.9-5.72-1.8-4.92-2.79-10.04-2.52-15.4.06-1.22.07-2.58-.39-3.67-1.38-3.25-1.36-6.64-1.59-10.04-.15-2.15-.6-4.28-.92-6.42-.23-1.53-.58-3.05-.69-4.59-.26-3.4-.48-6.77-1.36-10.11-.54-2.07-.51-4.31-.56-6.47-.1-4.96-.25-9.89-1.43-14.77-.51-2.09-.48-4.31-.73-6.8-1.03-2.26-2.07-4.85-3.37-7.3-2.74-5.19-7.27-7.33-13-7.36-3.19-.02-6.09.93-9.46,2.64-1.3,1.33-3.02,3.09-4.29,4.4-.57,1.16-.95,1.69-1.09,2.27-1.23,5.11-2.43,10.23-3.59,15.36-.2.9-.26,1.84-.31,2.77-.41,8.68-1.73,17.23-3.45,25.74-.36,1.81-.33,3.7-.54,5.55-.18,1.53-.44,3.06-.7,4.58-.36,2.14-.89,4.25-1.07,6.4-.28,3.4-.41,6.78-1.36,10.11-.42,1.46-.28,3.08-.37,4.62-.12,2.16-.22,4.33-.33,6.61-.57,1.03-1.02,2.22-1.79,3.16-.76.93-1.72,1.86-2.79,2.34-2.86,1.29-5.92,2.08-9.04,1.21-3.06-.86-6.13-.76-9.23-.8-4.96-.07-9.92-.18-14.88-.21-1.86-.01-3.79-.16-5.56.27-5.82,1.43-11.7.93-17.57,1.02-.62,0-1.24,0-1.61,0-2.68-.63-5.07-1.28-6.9-3.23-1.57-2.65-2.45-5.53-2.9-8.67-.96-6.73-1.41-13.55-3.16-20.16-.16-.59-.26-1.23-.24-1.84.21-8.13-1.69-15.98-3.2-23.88-.81-4.26-.92-8.62-2.16-12.82-.42-1.44-.22-3.08-.28-4.63-.1-2.48-.18-4.95-.25-7.02ZM397.29,125.15h4.94c6.24-1.57,8.89-5.29,9.35-10.67-1.01-4.12-2.63-7.68-6.85-9.57-2.87-.8-5.95-1.13-8.84.34-2.83,1.44-4.77,3.82-5.86,6.61-1.3,5.38.76,9.17,4.98,12.03.51.34,1.07.6,2.27,1.27Z"/>
</svg>
